<svg width="61" height="61" viewBox="0 0 61 61" fill="none" xmlns="http://www.w3.org/2000/svg">
<rect x="8" y="11" width="42" height="39" fill="#FFFEFE"/>
<path d="M55.2812 3.8125H5.71875C2.56152 3.8125 0 6.37402 0 9.53125V51.4688C0 54.626 2.56152 57.1875 5.71875 57.1875H55.2812C58.4385 57.1875 61 54.626 61 51.4688V9.53125C61 6.37402 58.4385 3.8125 55.2812 3.8125ZM45.3211 38.4229C45.893 38.9947 45.893 39.924 45.3211 40.4959L40.4959 45.3211C39.924 45.893 38.9947 45.893 38.4229 45.3211L30.5 37.3268L22.5771 45.3211C22.0053 45.893 21.076 45.893 20.5041 45.3211L15.6789 40.4959C15.107 39.924 15.107 38.9947 15.6789 38.4229L23.6732 30.5L15.6789 22.5771C15.107 22.0053 15.107 21.076 15.6789 20.5041L20.5041 15.6789C21.076 15.107 22.0053 15.107 22.5771 15.6789L30.5 23.6732L38.4229 15.6789C38.9947 15.107 39.924 15.107 40.4959 15.6789L45.3211 20.5041C45.893 21.076 45.893 22.0053 45.3211 22.5771L37.3268 30.5L45.3211 38.4229Z" fill="#FF0000"/>
</svg>
