<svg width="61" height="55" viewBox="0 0 61 55" fill="none" xmlns="http://www.w3.org/2000/svg">
<path d="M55.2812 0.8125H5.71875C2.56152 0.8125 0 3.37402 0 6.53125V48.4688C0 51.626 2.56152 54.1875 5.71875 54.1875H55.2812C58.4385 54.1875 61 51.626 61 48.4688V6.53125C61 3.37402 58.4385 0.8125 55.2812 0.8125ZM45.3211 35.4229C45.893 35.9947 45.893 36.924 45.3211 37.4959L40.4959 42.3211C39.924 42.893 38.9947 42.893 38.4229 42.3211L30.5 34.3268L22.5771 42.3211C22.0053 42.893 21.076 42.893 20.5041 42.3211L15.6789 37.4959C15.107 36.924 15.107 35.9947 15.6789 35.4229L23.6732 27.5L15.6789 19.5771C15.107 19.0053 15.107 18.076 15.6789 17.5041L20.5041 12.6789C21.076 12.107 22.0053 12.107 22.5771 12.6789L30.5 20.6732L38.4229 12.6789C38.9947 12.107 39.924 12.107 40.4959 12.6789L45.3211 17.5041C45.893 18.076 45.893 19.0053 45.3211 19.5771L37.3268 27.5L45.3211 35.4229Z" fill="#FF0000"/>
</svg>
