<svg width="61" height="61" viewBox="0 0 61 61" fill="none" xmlns="http://www.w3.org/2000/svg">
<ellipse cx="32" cy="29" rx="22" ry="21" fill="white"/>
<path d="M61 30.5C61 47.3447 47.3447 61 30.5 61C13.6553 61 0 47.3447 0 30.5C0 13.6553 13.6553 0 30.5 0C47.3447 0 61 13.6553 61 30.5ZM26.9721 46.6495L49.6011 24.0205C50.3695 23.2521 50.3695 22.0061 49.6011 21.2377L46.8184 18.455C46.05 17.6864 44.804 17.6864 44.0355 18.455L25.5806 36.9097L16.9645 28.2935C16.1961 27.5251 14.9502 27.5251 14.1816 28.2935L11.3989 31.0763C10.6305 31.8447 10.6305 33.0907 11.3989 33.8591L24.1892 46.6494C24.9577 47.4179 26.2036 47.4179 26.9721 46.6495Z" fill="#05FF00"/>
</svg>
