<svg width="50" height="43" viewBox="0 0 50 43" fill="none" xmlns="http://www.w3.org/2000/svg">
<path d="M0 14.6426V14.0762C0 7.25002 4.93359 1.42775 11.6602 0.306657C16.0254 -0.434554 20.6445 1.01662 23.8281 4.20509L25 5.37502L26.084 4.20509C29.3555 1.01662 33.8867 -0.434554 38.3398 0.306657C45.0684 1.42775 50 7.25002 50 14.0762V14.6426C50 18.6953 48.3203 22.5723 45.3516 25.336L27.7051 41.8106C26.9727 42.4942 26.0059 42.875 25 42.875C23.9941 42.875 23.0273 42.4942 22.2949 41.8106L4.64746 25.336C1.68262 22.5723 2.92969e-05 18.6953 2.92969e-05 14.6426H0Z" fill="white"/>
</svg>
