<svg width="270" height="41" viewBox="0 0 270 41" fill="none" xmlns="http://www.w3.org/2000/svg">
<path d="M17.0986 40.24C13.6319 40.24 10.6453 39.5867 8.13859 38.28C5.63193 36.9733 3.69859 35.1467 2.33859 32.8C1.00526 30.48 0.338594 27.8133 0.338594 24.8C0.338594 21.76 0.871927 18.9467 1.93859 16.36C3.03193 13.7733 4.56526 11.5333 6.53859 9.64C8.53859 7.72 10.8986 6.24 13.6186 5.2C16.3386 4.13333 19.3253 3.6 22.5786 3.6C26.0719 3.6 29.0453 4.21333 31.4986 5.44C33.9519 6.66667 35.8319 8.38667 37.1386 10.6C38.4453 12.7867 39.0986 15.3467 39.0986 18.28C39.0986 20.12 38.8586 21.88 38.3786 23.56C37.9253 25.2133 37.2586 26.7067 36.3786 28.04C35.4986 29.3467 34.4453 30.3867 33.2186 31.16C32.0186 31.9067 30.6719 32.28 29.1786 32.28C27.0719 32.28 25.5386 31.7333 24.5786 30.64C23.6186 29.52 23.3519 27.9733 23.7786 26L24.1786 24.28L24.8586 22.12L25.5386 16.24L26.3386 12.36H31.7786L29.1786 25.36C28.9919 26.16 29.0186 26.7867 29.2586 27.24C29.5253 27.6667 30.0053 27.88 30.6986 27.88C31.4186 27.88 32.0453 27.5867 32.5786 27C33.1119 26.4133 33.5653 25.64 33.9386 24.68C34.3119 23.72 34.5919 22.7067 34.7786 21.64C34.9653 20.5467 35.0586 19.5067 35.0586 18.52C35.0586 16.2267 34.5653 14.2533 33.5786 12.6C32.6186 10.92 31.1786 9.64 29.2586 8.76C27.3386 7.85333 24.9253 7.4 22.0186 7.4C19.4319 7.4 17.0719 7.84 14.9386 8.72C12.8319 9.57333 11.0186 10.7733 9.49859 12.32C8.00526 13.8667 6.84526 15.68 6.01859 17.76C5.21859 19.8133 4.81859 22.0533 4.81859 24.48C4.81859 26.8533 5.29859 28.9333 6.25859 30.72C7.24526 32.5067 8.67193 33.8933 10.5386 34.88C12.4319 35.8933 14.7253 36.4 17.4186 36.4C18.6986 36.4 19.9786 36.2667 21.2586 36C22.5386 35.76 23.7786 35.3867 24.9786 34.88L25.8586 38.56C24.6319 39.0667 23.2319 39.4667 21.6586 39.76C20.1119 40.08 18.5919 40.24 17.0986 40.24ZM17.0586 32.28C15.5386 32.28 14.1519 31.9467 12.8986 31.28C11.6719 30.5867 10.6853 29.6 9.93859 28.32C9.21859 27.0133 8.85859 25.4933 8.85859 23.76C8.85859 22.16 9.11193 20.6667 9.61859 19.28C10.1519 17.8667 10.8853 16.6267 11.8186 15.56C12.7786 14.4667 13.8986 13.6133 15.1786 13C16.4853 12.3867 17.9119 12.08 19.4586 12.08C21.9119 12.08 23.7653 12.8 25.0186 14.24C26.2719 15.6533 26.8986 17.6267 26.8986 20.16C26.9253 22.3733 26.5786 24.4 25.8586 26.24C25.1386 28.08 24.0453 29.5467 22.5786 30.64C21.1386 31.7333 19.2986 32.28 17.0586 32.28ZM18.7386 27.68C19.9119 27.68 20.9253 27.3867 21.7786 26.8C22.6586 26.1867 23.3386 25.3867 23.8186 24.4C24.3253 23.4133 24.5786 22.3067 24.5786 21.08C24.5786 19.64 24.1786 18.56 23.3786 17.84C22.5786 17.0933 21.4986 16.72 20.1386 16.72C19.0453 16.72 18.0719 16.9867 17.2186 17.52C16.3653 18.0267 15.6853 18.7733 15.1786 19.76C14.6719 20.7467 14.4186 21.92 14.4186 23.28C14.4186 24.6933 14.8053 25.7867 15.5786 26.56C16.3786 27.3067 17.4319 27.68 18.7386 27.68ZM46.3448 32L42.5448 10.48H48.2248L51.2648 29H48.3448L58.6648 10.48H64.0248L67.1448 29H64.2248L74.4648 10.48H80.3448L68.4648 32H62.3048L59.3848 16.12H61.2248L52.4248 32H46.3448ZM86.4086 32.32C84.5153 32.32 82.7286 32.1067 81.0486 31.68C79.3953 31.2533 78.1153 30.72 77.2086 30.08L79.6086 25.56C80.5419 26.1733 81.6753 26.6667 83.0086 27.04C84.3686 27.4133 85.7286 27.6 87.0886 27.6C88.5553 27.6 89.6219 27.4133 90.2886 27.04C90.9553 26.6667 91.2886 26.16 91.2886 25.52C91.2886 25.0133 91.0086 24.64 90.4486 24.4C89.8886 24.1333 89.1819 23.92 88.3286 23.76C87.4753 23.6 86.5553 23.4133 85.5686 23.2C84.6086 22.9867 83.6886 22.6933 82.8086 22.32C81.9553 21.92 81.2486 21.36 80.6886 20.64C80.1553 19.8933 79.8886 18.92 79.8886 17.72C79.8886 16.0933 80.3419 14.72 81.2486 13.6C82.1819 12.48 83.4619 11.6267 85.0886 11.04C86.7419 10.4533 88.6086 10.16 90.6886 10.16C92.1819 10.16 93.6353 10.32 95.0486 10.64C96.4619 10.96 97.6619 11.4 98.6486 11.96L96.4086 16.52C95.3953 15.88 94.3286 15.4533 93.2086 15.24C92.1153 15 91.0619 14.88 90.0486 14.88C88.5819 14.88 87.5153 15.0933 86.8486 15.52C86.2086 15.92 85.8886 16.4133 85.8886 17C85.8886 17.5067 86.1553 17.9067 86.6886 18.2C87.2486 18.4667 87.9553 18.6933 88.8086 18.88C89.6619 19.04 90.5819 19.2267 91.5686 19.44C92.5553 19.6267 93.4753 19.92 94.3286 20.32C95.1819 20.6933 95.8753 21.24 96.4086 21.96C96.9686 22.6533 97.2486 23.6 97.2486 24.8C97.2486 26.4267 96.7686 27.8133 95.8086 28.96C94.8753 30.08 93.5953 30.92 91.9686 31.48C90.3419 32.04 88.4886 32.32 86.4086 32.32ZM108.579 32.32C107.032 32.32 105.712 32.0133 104.619 31.4C103.525 30.76 102.739 29.8533 102.259 28.68C101.805 27.48 101.739 26.0667 102.059 24.44L105.779 5.72H112.019L108.299 24.4C108.139 25.3067 108.232 26.0267 108.579 26.56C108.925 27.0933 109.565 27.36 110.499 27.36C110.925 27.36 111.352 27.2933 111.779 27.16C112.232 27.0267 112.645 26.84 113.019 26.6L113.939 31.04C113.165 31.52 112.312 31.8533 111.379 32.04C110.445 32.2267 109.512 32.32 108.579 32.32ZM100.459 15.76L101.419 10.96H116.339L115.379 15.76H100.459ZM126.401 32.32C124.641 32.32 123.121 31.9467 121.841 31.2C120.561 30.4267 119.655 29.3067 119.121 27.84C118.588 26.3733 118.535 24.56 118.961 22.4L121.321 10.48H127.561L125.281 22C124.961 23.5733 125.081 24.7867 125.641 25.64C126.228 26.4933 127.255 26.92 128.721 26.92C130.268 26.92 131.561 26.4667 132.601 25.56C133.668 24.6533 134.375 23.2667 134.721 21.4L136.921 10.48H143.161L138.881 32H132.961L134.161 25.92L135.041 27.76C134.028 29.3333 132.761 30.4933 131.241 31.24C129.721 31.96 128.108 32.32 126.401 32.32ZM154.462 32.32C152.809 32.32 151.276 31.9467 149.862 31.2C148.449 30.4267 147.316 29.32 146.462 27.88C145.609 26.44 145.182 24.7067 145.182 22.68C145.182 20.8667 145.476 19.2 146.062 17.68C146.676 16.16 147.529 14.84 148.622 13.72C149.716 12.6 150.982 11.7333 152.422 11.12C153.862 10.48 155.409 10.16 157.062 10.16C158.742 10.16 160.196 10.4533 161.422 11.04C162.649 11.6267 163.596 12.5333 164.262 13.76C164.956 14.96 165.302 16.48 165.302 18.32C165.302 20.2933 165.062 22.1333 164.582 23.84C164.129 25.52 163.436 27 162.502 28.28C161.569 29.5333 160.422 30.52 159.062 31.24C157.729 31.96 156.196 32.32 154.462 32.32ZM156.382 27.16C157.609 27.16 158.689 26.8667 159.622 26.28C160.582 25.6667 161.329 24.84 161.862 23.8C162.422 22.7333 162.702 21.4933 162.702 20.08C162.702 18.6133 162.262 17.4533 161.382 16.6C160.529 15.7467 159.329 15.32 157.782 15.32C156.582 15.32 155.502 15.6267 154.542 16.24C153.582 16.8267 152.822 17.6533 152.262 18.72C151.729 19.76 151.462 20.9867 151.462 22.4C151.462 23.8667 151.889 25.0267 152.742 25.88C153.622 26.7333 154.836 27.16 156.382 27.16ZM160.622 32L161.502 27.72L162.862 21.32L163.702 14.92L166.222 2.32H172.462L166.542 32H160.622ZM172.358 32L176.638 10.48H182.838L178.558 32H172.358ZM180.798 7.48C179.704 7.48 178.824 7.17333 178.158 6.56C177.491 5.92 177.158 5.14667 177.158 4.24C177.158 3.17333 177.531 2.29333 178.278 1.6C179.051 0.879998 180.051 0.519998 181.278 0.519998C182.371 0.519998 183.251 0.826664 183.918 1.44C184.611 2.02666 184.958 2.76 184.958 3.64C184.958 4.78667 184.571 5.72 183.798 6.44C183.051 7.13333 182.051 7.48 180.798 7.48ZM195.59 32.32C193.403 32.32 191.497 31.92 189.87 31.12C188.243 30.32 186.977 29.2 186.07 27.76C185.19 26.32 184.75 24.6267 184.75 22.68C184.75 20.28 185.31 18.1467 186.43 16.28C187.55 14.3867 189.083 12.8933 191.03 11.8C193.003 10.7067 195.243 10.16 197.75 10.16C199.963 10.16 201.87 10.56 203.47 11.36C205.097 12.16 206.35 13.28 207.23 14.72C208.137 16.1333 208.59 17.8267 208.59 19.8C208.59 22.1733 208.03 24.3067 206.91 26.2C205.79 28.0933 204.257 29.5867 202.31 30.68C200.363 31.7733 198.123 32.32 195.59 32.32ZM195.99 27.2C197.217 27.2 198.297 26.9067 199.23 26.32C200.19 25.7067 200.937 24.8667 201.47 23.8C202.003 22.7333 202.27 21.4933 202.27 20.08C202.27 18.64 201.843 17.48 200.99 16.6C200.137 15.72 198.937 15.28 197.39 15.28C196.163 15.28 195.07 15.5867 194.11 16.2C193.177 16.7867 192.43 17.6133 191.87 18.68C191.337 19.7467 191.07 20.9867 191.07 22.4C191.07 23.8667 191.497 25.04 192.35 25.92C193.203 26.7733 194.417 27.2 195.99 27.2ZM213.127 32.32C212.061 32.32 211.181 31.9867 210.487 31.32C209.794 30.6267 209.447 29.76 209.447 28.72C209.447 27.4667 209.847 26.4667 210.647 25.72C211.474 24.9467 212.461 24.56 213.607 24.56C214.674 24.56 215.541 24.8933 216.207 25.56C216.901 26.2267 217.247 27.0933 217.247 28.16C217.247 28.9867 217.047 29.72 216.647 30.36C216.274 30.9733 215.781 31.4533 215.167 31.8C214.554 32.1467 213.874 32.32 213.127 32.32ZM229.722 32.32C227.962 32.32 226.442 31.9467 225.162 31.2C223.882 30.4267 222.975 29.3067 222.442 27.84C221.908 26.3733 221.855 24.56 222.282 22.4L224.642 10.48H230.882L228.602 22C228.282 23.5733 228.402 24.7867 228.962 25.64C229.548 26.4933 230.575 26.92 232.042 26.92C233.588 26.92 234.882 26.4667 235.922 25.56C236.988 24.6533 237.695 23.2667 238.042 21.4L240.242 10.48H246.482L242.202 32H236.282L237.482 25.92L238.362 27.76C237.348 29.3333 236.082 30.4933 234.562 31.24C233.042 31.96 231.428 32.32 229.722 32.32ZM246.463 32L247.223 28.24L262.623 13.2L263.623 15.28H250.143L251.103 10.48H269.583L268.863 14.24L253.463 29.28L252.383 27.2H266.623L265.663 32H246.463Z" fill="white"/>
</svg>
